HIERARCHY
ROOT Hips
{
    OFFSET 0.000000 0.000000 0.000000
    CHANNELS 6 Xposition Yposition Zposition Zrotation Xrotation Yrotation
    JOINT Spine
    {
        OFFSET 0.000001 7.292995 0.000000
        CHANNELS 3 Zrotation Xrotation Yrotation
        JOINT Spine1
        {
            OFFSET -0.000000 20.255388 0.000001
            CHANNELS 3 Zrotation Xrotation Yrotation
            JOINT Neck
            {
                OFFSET 0.000001 20.786594 0.000000
                CHANNELS 3 Zrotation Xrotation Yrotation
                JOINT Head
                {
                    OFFSET 0.000003 12.530788 1.776080
                    CHANNELS 3 Zrotation Xrotation Yrotation
                    End Site
                    {
                        OFFSET 0.000000 17.760757 0.000000
                    }
                }
            }
            JOINT LeftShoulder
            {
                OFFSET 3.550532 15.465697 -0.908801
                CHANNELS 3 Zrotation Xrotation Yrotation
                JOINT LeftArm
                {
                    OFFSET 12.513301 -0.000005 0.000001
                    CHANNELS 3 Zrotation Xrotation Yrotation
                    JOINT LeftForeArm
                    {
                        OFFSET 24.225992 0.000005 0.000000
                        CHANNELS 3 Zrotation Xrotation Yrotation
                        JOINT LeftHand
                        {
                            OFFSET 20.711395 -0.000004 0.000000
                            CHANNELS 3 Zrotation Xrotation Yrotation
                            JOINT LeftHandThumb1
                            {
                                OFFSET 2.121964 -2.411326 3.375861
                                CHANNELS 3 Zrotation Xrotation Yrotation
                                JOINT LeftHandThumb2
                                {
                                    OFFSET 2.803212 -0.000001 -0.000002
                                    CHANNELS 3 Zrotation Xrotation Yrotation
                                    JOINT LeftHandThumb3
                                    {
                                        OFFSET 2.395929 0.000000 0.000000
                                        CHANNELS 3 Zrotation Xrotation Yrotation
                                        End Site
                                        {
                                            OFFSET 2.127676 0.000000 0.000000
                                        }
                                    }
                                }
                            }
                            JOINT LeftHandIndex1
                            {
                                OFFSET 8.680776 0.000004 3.375861
                                CHANNELS 3 Zrotation Xrotation Yrotation
                                JOINT LeftHandIndex2
                                {
                                    OFFSET 4.218180 -0.000002 0.000001
                                    CHANNELS 3 Zrotation Xrotation Yrotation
                                    JOINT LeftHandIndex3
                                    {
                                        OFFSET 2.109090 0.000001 -0.000000
                                        CHANNELS 3 Zrotation Xrotation Yrotation
                                        End Site
                                        {
                                            OFFSET 1.872952 0.000000 0.000000
                                        }
                                    }
                                }
                            }
                            JOINT LeftHandMiddle1
                            {
                                OFFSET 8.680775 0.000001 1.118862
                                CHANNELS 3 Zrotation Xrotation Yrotation
                                JOINT LeftHandMiddle2
                                {
                                    OFFSET 4.640000 0.000002 -0.000000
                                    CHANNELS 3 Zrotation Xrotation Yrotation
                                    JOINT LeftHandMiddle3
                                    {
                                        OFFSET 2.530906 0.000005 0.000000
                                        CHANNELS 3 Zrotation Xrotation Yrotation
                                        End Site
                                        {
                                            OFFSET 2.247544 0.000000 0.000000
                                        }
                                    }
                                }
                            }
                            JOINT LeftHandRing1
                            {
                                OFFSET 8.198514 -0.000004 -1.118859
                                CHANNELS 3 Zrotation Xrotation Yrotation
                                JOINT LeftHandRing2
                                {
                                    OFFSET 4.218182 -0.000003 -0.000001
                                    CHANNELS 3 Zrotation Xrotation Yrotation
                                    JOINT LeftHandRing3
                                    {
                                        OFFSET 2.109086 0.000004 0.000001
                                        CHANNELS 3 Zrotation Xrotation Yrotation
                                        End Site
                                        {
                                            OFFSET 1.872952 0.000000 0.000000
                                        }
                                    }
                                }
                            }
                            JOINT LeftHandPinky1
                            {
                                OFFSET 7.716242 0.000005 -3.375859
                                CHANNELS 3 Zrotation Xrotation Yrotation
                                JOINT LeftHandPinky2
                                {
                                    OFFSET 3.374535 0.000004 0.000002
                                    CHANNELS 3 Zrotation Xrotation Yrotation
                                    JOINT LeftHandPinky3
                                    {
                                        OFFSET 1.687275 0.000002 -0.000001
                                        CHANNELS 3 Zrotation Xrotation Yrotation
                                        End Site
                                        {
                                            OFFSET 1.498360 0.000000 0.000000
                                        }
                                    }
                                }
                            }
                        }
                    }
                }
            }
            JOINT RightShoulder
            {
                OFFSET -3.550531 15.465694 -0.908802
                CHANNELS 3 Zrotation Xrotation Yrotation
                JOINT RightArm
                {
                    OFFSET -12.513298 -0.000004 0.000001
                    CHANNELS 3 Zrotation Xrotation Yrotation
                    JOINT RightForeArm
                    {
                        OFFSET -24.225996 -0.000002 -0.000000
                        CHANNELS 3 Zrotation Xrotation Yrotation
                        JOINT RightHand
                        {
                            OFFSET -20.711401 0.000005 0.000001
                            CHANNELS 3 Zrotation Xrotation Yrotation
                            JOINT RightHandThumb1
                            {
                                OFFSET -2.121970 -2.411334 3.375861
                                CHANNELS 3 Zrotation Xrotation Yrotation
                                JOINT RightHandThumb2
                                {
                                    OFFSET -2.803210 0.000003 -0.000004
                                    CHANNELS 3 Zrotation Xrotation Yrotation
                                    JOINT RightHandThumb3
                                    {
                                        OFFSET -2.395930 -0.000001 0.000002
                                        CHANNELS 3 Zrotation Xrotation Yrotation
                                        End Site
                                        {
                                            OFFSET -2.127676 0.000000 0.000000
                                        }
                                    }
                                }
                            }
                            JOINT RightHandIndex1
                            {
                                OFFSET -8.680779 0.000001 3.375860
                                CHANNELS 3 Zrotation Xrotation Yrotation
                                JOINT RightHandIndex2
                                {
                                    OFFSET -4.218180 0.000000 -0.000000
                                    CHANNELS 3 Zrotation Xrotation Yrotation
                                    JOINT RightHandIndex3
                                    {
                                        OFFSET -2.109090 0.000001 -0.000000
                                        CHANNELS 3 Zrotation Xrotation Yrotation
                                        End Site
                                        {
                                            OFFSET -1.872952 0.000000 0.000000
                                        }
                                    }
                                }
                            }
                            JOINT RightHandMiddle1
                            {
                                OFFSET -8.680780 0.000001 1.118860
                                CHANNELS 3 Zrotation Xrotation Yrotation
                                JOINT RightHandMiddle2
                                {
                                    OFFSET -4.640000 -0.000002 0.000001
                                    CHANNELS 3 Zrotation Xrotation Yrotation
                                    JOINT RightHandMiddle3
                                    {
                                        OFFSET -2.530910 0.000001 -0.000000
                                        CHANNELS 3 Zrotation Xrotation Yrotation
                                        End Site
                                        {
                                            OFFSET -2.247544 0.000000 0.000000
                                        }
                                    }
                                }
                            }
                            JOINT RightHandRing1
                            {
                                OFFSET -8.198519 0.000005 -1.118860
                                CHANNELS 3 Zrotation Xrotation Yrotation
                                JOINT RightHandRing2
                                {
                                    OFFSET -4.218180 -0.000006 0.000000
                                    CHANNELS 3 Zrotation Xrotation Yrotation
                                    JOINT RightHandRing3
                                    {
                                        OFFSET -2.109090 0.000001 -0.000000
                                        CHANNELS 3 Zrotation Xrotation Yrotation
                                        End Site
                                        {
                                            OFFSET -1.872952 0.000000 0.000000
                                        }
                                    }
                                }
                            }
                            JOINT RightHandPinky1
                            {
                                OFFSET -7.716248 -0.000002 -3.375859
                                CHANNELS 3 Zrotation Xrotation Yrotation
                                JOINT RightHandPinky2
                                {
                                    OFFSET -3.374540 0.000000 0.000000
                                    CHANNELS 3 Zrotation Xrotation Yrotation
                                    JOINT RightHandPinky3
                                    {
                                        OFFSET -1.687270 0.000004 0.000001
                                        CHANNELS 3 Zrotation Xrotation Yrotation
                                        End Site
                                        {
                                            OFFSET -1.498360 0.000000 0.000000
                                        }
                                    }
                                }
                            }
                        }
                    }
                }
            }
        }
    }
    JOINT LeftUpLeg
    {
        OFFSET 8.880376 -0.000000 -0.000000
        CHANNELS 3 Zrotation Xrotation Yrotation
        JOINT LeftLeg
        {
            OFFSET -0.000001 -40.387405 -0.000001
            CHANNELS 3 Zrotation Xrotation Yrotation
            JOINT LeftFoot
            {
                OFFSET -0.000001 -36.911297 -0.000001
                CHANNELS 3 Zrotation Xrotation Yrotation
                JOINT LeftToeBase
                {
                    OFFSET -0.000002 -5.772240 13.320604
                    CHANNELS 3 Zrotation Xrotation Yrotation
                    End Site
                    {
                        OFFSET 0.000000 0.000000 3.552151
                    }
                }
            }
        }
    }
    JOINT RightUpLeg
    {
        OFFSET -8.880376 0.000000 0.000000
        CHANNELS 3 Zrotation Xrotation Yrotation
        JOINT RightLeg
        {
            OFFSET -0.000001 -40.387390 0.000000
            CHANNELS 3 Zrotation Xrotation Yrotation
            JOINT RightFoot
            {
                OFFSET 0.000002 -36.911297 -0.000001
                CHANNELS 3 Zrotation Xrotation Yrotation
                JOINT RightToeBase
                {
                    OFFSET 0.000001 -5.772238 13.320600
                    CHANNELS 3 Zrotation Xrotation Yrotation
                    End Site
                    {
                        OFFSET 0.000000 0.000000 3.552151
                    }
                }
            }
        }
    }
}
MOTION
Frames: 4
Frame Time: 0.013889
-3.174853    83.880493    0.148328    4.471724    9.696737    1.474831    0.022318    -22.808193    0.057574    3.615280    15.331338    -0.905792    -2.525111    -12.288554    1.317703    0.725262    0.906730    1.885141    -0.485701    5.808663    -2.913744    -55.319523    45.015224    -22.408379    -10.504264    -24.788492    -23.856712    -1.470993    -7.604388    8.939897    32.807957    33.197971    -43.538494    -15.477451    -1.537213    23.269571    -0.000000    0.000000    -0.000000    -9.713271    17.758232    -0.265495    -9.246278    -0.000004    0.000001    -9.246285    -0.000002    0.000003    -8.710460    8.897868    -0.269525    -8.604842    0.000002    -0.000002    -8.604840    -0.000002    -0.000000    -8.385923    -8.905329    -2.082242    -8.284108    -0.000001    0.000001    -8.284122    -0.000001    -0.000000    -8.367547    -17.820524    -4.127310    -7.963390    -0.000001    0.000000    -7.963402    0.000000    -0.000000    9.265763    5.850996    3.703769    57.685154    33.372562    9.578760    10.970518    -33.038235    19.572950    4.930353    -13.807832    -3.837200    -40.597790    27.059534    45.321659    12.932886    -0.441765    -23.313522    -0.000000    0.000000    -0.000000    25.337826    16.365498    11.320814    24.243505    -0.000002    -0.000001    24.243502    0.000002    0.000000    26.148836    8.091753    5.506886    25.869093    0.000004    0.000000    25.869095    -0.000002    -0.000001    26.967731    -8.034903    1.607272    26.681894    -0.000001    0.000001    26.681890    -0.000000    -0.000001    28.688932    -15.909217    3.609437    27.494694    0.000001    -0.000000    27.494692    0.000001    -0.000000    -5.585752    -7.203694    5.172482    0.000000    8.965108    -0.000000    2.699109    -3.124868    -6.843059    0.000000    0.518974    0.000000    -2.916952    -5.271725    -12.634974    -0.000000    4.718857    0.000000    7.080727    -9.987380    1.562928    -0.000000    4.716938    0.000000    
-3.179677    83.875587    0.188858    4.629059    9.657803    1.358198    0.026128    -22.666391    0.067801    3.752048    15.323630    -0.932425    -2.484195    -12.406813    1.386825    0.817037    0.867659    1.952098    -0.070823    5.868817    -2.861763    -54.512791    46.184250    -23.169020    -11.511760    -25.551666    -25.276075    -0.562208    -7.972386    9.568361    32.728458    33.248833    -43.608829    -15.409913    -1.508186    23.271360    -0.000000    0.000000    -0.000000    -8.787090    17.802101    0.172995    -8.363248    -0.000002    0.000002    -8.363241    -0.000002    0.000005    -8.013974    8.913525    -0.016689    -7.916569    0.000000    0.000000    -7.916577    0.000002    0.000001    -7.787955    -8.918329    -2.015977    -7.693234    -0.000001    -0.000001    -7.693226    0.000001    0.000001    -7.849615    -17.842035    -4.021454    -7.469894    -0.000001    -0.000002    -7.469885    -0.000001    0.000001    9.358420    5.820211    3.780765    57.474308    33.219082    9.578877    11.085830    -33.163300    19.706615    5.346853    -13.905959    -3.583333    -40.849293    26.771442    45.606781    12.817815    -0.392179    -23.314360    -0.000000    0.000000    -0.000000    25.494118    16.345436    11.925132    24.394812    0.000002    0.000000    24.394819    0.000002    0.000001    26.398472    8.074603    5.795952    26.116867    0.000000    0.000001    26.116869    0.000000    0.000001    27.265884    -8.013795    1.827574    26.977898    -0.000002    -0.000000    26.977890    -0.000000    0.000001    29.042791    -15.857862    4.063643    27.838924    -0.000002    0.000001    27.838919    -0.000001    0.000002    -5.757036    -7.371572    4.937467    0.000000    9.417750    0.000001    2.948362    -3.108607    -6.450706    -0.000000    0.433743    -0.000000    -3.070594    -5.283234    -12.637795    -0.000000    4.864079    0.000001    7.084110    -10.120551    1.660933    -0.000000    4.761685    0.000001    
-3.183580    83.872971    0.226801    4.842149    9.591459    1.178966    0.031714    -22.466925    0.082988    3.936347    15.318646    -0.967339    -2.393589    -12.562898    1.515080    0.976865    0.801974    2.070023    0.486394    5.942044    -2.819403    -53.287724    47.678783    -24.213074    -13.100112    -26.645678    -27.424526    0.575991    -8.508228    10.275926    32.723766    33.240051    -43.721901    -15.263515    -1.445237    23.275137    -0.000000    0.000000    -0.000000    -7.561890    17.853394    0.779169    -7.195758    0.000000    0.000000    -7.195768    -0.000001    -0.000007    -7.067439    8.932728    0.327139    -6.981277    0.000002    0.000001    -6.981280    -0.000002    0.000002    -6.958902    -8.934779    -1.886196    -6.874045    0.000000    -0.000002    -6.874036    -0.000001    0.000001    -7.111567    -17.870319    -3.792871    -6.766809    0.000000    -0.000000    -6.766801    -0.000001    0.000002    9.450353    5.767510    3.914798    57.126522    33.039757    9.637517    11.288184    -33.335453    19.962172    5.894045    -14.039818    -3.533153    -41.165726    26.394196    45.985184    12.671991    -0.329336    -23.315279    -0.000000    0.000000    -0.000000    25.689583    16.320164    12.854086    24.584114    -0.000001    0.000002    24.584108    -0.000002    0.000000    26.750980    8.050112    6.238471    26.466751    0.000003    -0.000001    26.466757    0.000000    0.000001    27.699158    -7.982742    2.149414    27.408081    0.000000    -0.000000    27.408081    -0.000001    -0.000002    29.567268    -15.780659    4.729731    28.349407    -0.000001    0.000000    28.349407    0.000000    0.000004    -5.983358    -7.620587    4.627254    -0.000000    10.073631    0.000000    3.297211    -3.102155    -5.916108    0.000000    0.277572    -0.000000    -3.284773    -5.335327    -12.613941    -0.000000    5.127533    0.000001    7.047526    -10.318388    1.790215    0.000000    4.824988    0.000000    
-3.186925    83.873009    0.251916    5.003201    9.547249    1.034949    0.036720    -22.310522    0.096726    4.073684    15.302144    -0.990269    -2.346802    -12.666670    1.553530    1.092029    0.770228    2.103195    0.868906    5.982610    -2.770063    -52.291271    48.708000    -25.007912    -14.440645    -27.478554    -29.165506    1.384698    -8.962646    10.743114    32.766430    33.201012    -43.790051    -15.129206    -1.387480    23.278458    -0.000000    0.000000    -0.000000    -6.661925    17.886185    1.236756    -6.338597    0.000000    0.000000    -6.338589    -0.000002    0.000002    -6.373138    8.945293    0.586127    -6.295299    0.000002    0.000001    -6.295309    0.000000    -0.000001    -6.351214    -8.945663    -1.757406    -6.273668    0.000001    -0.000002    -6.273654    -0.000001    0.000000    -6.570995    -17.889267    -3.558201    -6.252021    -0.000001    -0.000001    -6.252014    -0.000000    0.000000    9.501825    5.718773    3.972495    56.868328    32.883625    9.694113    11.533494    -33.535473    20.272837    6.273418    -14.037820    -3.761488    -41.411369    26.099300    46.267761    12.558962    -0.280618    -23.315880    -0.000000    0.000000    -0.000000    25.854780    16.298670    13.637409    24.744093    -0.000005    0.000000    24.744087    0.000003    -0.000001    27.066004    8.027976    6.609274    26.779472    0.000000    0.000001    26.779465    -0.000002    0.000000    28.090973    -7.954262    2.440250    27.797155    -0.000001    0.000002    27.797152    0.000000    -0.000000    30.045118    -15.709159    5.332434    28.814831    0.000001    0.000003    28.814840    -0.000000    -0.000002    -6.152496    -7.826751    4.400903    -0.000000    10.589802    0.000001    3.542112    -3.081836    -5.524219    0.000000    0.137140    -0.000000    -3.452293    -5.424578    -12.609775    -0.000000    5.403382    0.000003    7.014840    -10.510653    1.874272    0.000000    4.854040    0.000001    
